<svg width="230" height="205" viewBox="0 0 230 205" fill="none" xmlns="http://www.w3.org/2000/svg">
<g clip-path="url(#clip0_820_6900)">
<path d="M146.394 55.1978L115.868 2.08387C115.336 1.15954 114.003 1.15954 113.471 2.08387L82.9453 55.1978H146.394Z" fill="#E8BA89"></path>
<path d="M82.9453 55.2109H146.394V68.1816C146.394 68.6393 146.022 69.0105 145.564 69.0105H83.7742C83.3165 69.0105 82.9453 68.6393 82.9453 68.1816V55.2109Z" fill="#E8BA89" fill-opacity="0.77"></path>
<path d="M186.376 124.211L163.38 84.1989C162.887 83.3413 161.973 82.8125 160.984 82.8125H69.0096C68.0202 82.8125 67.1064 83.3413 66.6135 84.1989L43.6172 124.211H186.376Z" fill="#E8BA89"></path>
<path d="M186.376 124.211H43.6172V132.582C43.6172 133.039 43.9884 133.411 44.4463 133.411H185.547C186.005 133.411 186.376 133.039 186.376 132.582V124.211Z" fill="#E8BA89" fill-opacity="0.77"></path>
<path d="M0 200.098H230L201.716 150.886C201.224 150.029 200.31 149.5 199.32 149.5H30.6797C29.6905 149.5 28.7764 150.029 28.2836 150.886L0 200.098Z" fill="#E8BA89"></path>
<path d="M0 200.102H230V203.872C230 204.33 229.629 204.701 229.171 204.701H0.829069C0.371188 204.701 0 204.33 0 203.872V200.102Z" fill="#E8BA89" fill-opacity="0.77"></path>
</g>
<defs>
<clipPath id="clip0_820_6900">
<rect width="230" height="204.7" fill="white"></rect>
</clipPath>
</defs>
</svg>